<svg xmlns="http://www.w3.org/2000/svg" viewBox="0 0 770.52 186.35"><defs><style>.cls-1{fill:#e66667;}.cls-2{fill:#fff;}</style></defs><g id="Layer_2" data-name="Layer 2"><g id="Layer_1-2" data-name="Layer 1"><rect class="cls-1" width="770.52" height="186.35" rx="4"/><rect class="cls-2" x="4.94" y="163.2" width="13.1" height="17.09"/><rect class="cls-2" x="24.04" y="163.2" width="13.1" height="17.09"/><rect class="cls-2" x="41.71" y="163.31" width="13.1" height="17.09"/><rect class="cls-2" x="60.8" y="163.31" width="13.1" height="17.09"/><rect class="cls-2" x="79.19" y="163.14" width="13.1" height="17.09"/><rect class="cls-2" x="98.28" y="163.14" width="13.1" height="17.09"/><rect class="cls-2" x="115.96" y="163.26" width="13.1" height="17.09"/><rect class="cls-2" x="135.05" y="163.26" width="13.1" height="17.09"/><rect class="cls-2" x="155.19" y="163.09" width="13.1" height="17.09"/><rect class="cls-2" x="174.28" y="163.09" width="13.1" height="17.09"/><rect class="cls-2" x="191.96" y="163.2" width="13.1" height="17.09"/><rect class="cls-2" x="211.05" y="163.2" width="13.1" height="17.09"/><rect class="cls-2" x="229.44" y="163.09" width="13.1" height="17.09"/><rect class="cls-2" x="248.53" y="163.09" width="13.1" height="17.09"/><rect class="cls-2" x="266.21" y="163.2" width="13.1" height="17.09"/><rect class="cls-2" x="285.3" y="163.2" width="13.1" height="17.09"/><rect class="cls-2" x="303.69" y="163.03" width="13.1" height="17.09"/><rect class="cls-2" x="322.78" y="163.03" width="13.1" height="17.09"/><rect class="cls-2" x="340.45" y="163.14" width="13.1" height="17.09"/><rect class="cls-2" x="359.54" y="163.14" width="13.1" height="17.09"/><rect class="cls-2" x="379.69" y="162.98" width="13.1" height="17.09"/><rect class="cls-2" x="398.78" y="162.98" width="13.1" height="17.09"/><rect class="cls-2" x="416.45" y="163.09" width="13.1" height="17.09"/><rect class="cls-2" x="435.54" y="163.09" width="13.1" height="17.09"/><rect class="cls-2" x="453.97" y="163.03" width="13.1" height="17.09"/><rect class="cls-2" x="473.06" y="163.03" width="13.1" height="17.09"/><rect class="cls-2" x="490.74" y="163.14" width="13.1" height="17.09"/><rect class="cls-2" x="509.83" y="163.14" width="13.1" height="17.09"/><rect class="cls-2" x="528.21" y="162.98" width="13.1" height="17.09"/><rect class="cls-2" x="547.3" y="162.98" width="13.1" height="17.09"/><rect class="cls-2" x="564.98" y="163.09" width="13.1" height="17.09"/><rect class="cls-2" x="584.07" y="163.09" width="13.1" height="17.09"/><rect class="cls-2" x="604.21" y="162.92" width="13.1" height="17.09"/><rect class="cls-2" x="623.3" y="162.92" width="13.1" height="17.09"/><rect class="cls-2" x="640.98" y="163.03" width="13.1" height="17.09"/><rect class="cls-2" x="660.07" y="163.03" width="13.1" height="17.09"/><rect class="cls-2" x="660.06" y="163.26" width="13.1" height="17.09"/><rect class="cls-2" x="679.15" y="163.26" width="13.1" height="17.09"/><rect class="cls-2" x="696.82" y="163.37" width="13.1" height="17.09"/><rect class="cls-2" x="715.92" y="163.37" width="13.1" height="17.09"/><rect class="cls-2" x="734.3" y="163.2" width="13.1" height="17.09"/><rect class="cls-2" x="753.39" y="163.2" width="13.1" height="17.09"/><rect class="cls-2" x="4.49" y="7.83" width="13.1" height="17.09"/><rect class="cls-2" x="23.58" y="7.83" width="13.1" height="17.09"/><rect class="cls-2" x="41.25" y="7.94" width="13.1" height="17.09"/><rect class="cls-2" x="60.34" y="7.94" width="13.1" height="17.09"/><rect class="cls-2" x="78.73" y="7.77" width="13.1" height="17.09"/><rect class="cls-2" x="97.82" y="7.77" width="13.1" height="17.09"/><rect class="cls-2" x="115.5" y="7.88" width="13.1" height="17.09"/><rect class="cls-2" x="134.59" y="7.88" width="13.1" height="17.09"/><rect class="cls-2" x="154.73" y="7.72" width="13.1" height="17.09"/><rect class="cls-2" x="173.82" y="7.72" width="13.1" height="17.09"/><rect class="cls-2" x="191.5" y="7.83" width="13.1" height="17.09"/><rect class="cls-2" x="210.59" y="7.83" width="13.1" height="17.09"/><rect class="cls-2" x="228.98" y="7.72" width="13.1" height="17.09"/><rect class="cls-2" x="248.07" y="7.72" width="13.1" height="17.09"/><rect class="cls-2" x="265.75" y="7.83" width="13.1" height="17.09"/><rect class="cls-2" x="284.84" y="7.83" width="13.1" height="17.09"/><rect class="cls-2" x="303.23" y="7.66" width="13.1" height="17.09"/><rect class="cls-2" x="322.32" y="7.66" width="13.1" height="17.09"/><rect class="cls-2" x="339.99" y="7.77" width="13.1" height="17.09"/><rect class="cls-2" x="359.09" y="7.77" width="13.1" height="17.09"/><rect class="cls-2" x="379.23" y="7.6" width="13.1" height="17.09"/><rect class="cls-2" x="398.32" y="7.6" width="13.1" height="17.09"/><rect class="cls-2" x="415.99" y="7.72" width="13.1" height="17.09"/><rect class="cls-2" x="435.09" y="7.72" width="13.1" height="17.09"/><rect class="cls-2" x="453.51" y="7.66" width="13.1" height="17.09"/><rect class="cls-2" x="472.6" y="7.66" width="13.1" height="17.09"/><rect class="cls-2" x="490.28" y="7.77" width="13.1" height="17.09"/><rect class="cls-2" x="509.37" y="7.77" width="13.1" height="17.09"/><rect class="cls-2" x="527.75" y="7.6" width="13.1" height="17.09"/><rect class="cls-2" x="546.84" y="7.6" width="13.1" height="17.09"/><rect class="cls-2" x="564.52" y="7.72" width="13.1" height="17.09"/><rect class="cls-2" x="583.61" y="7.72" width="13.1" height="17.09"/><rect class="cls-2" x="603.75" y="7.55" width="13.1" height="17.09"/><rect class="cls-2" x="622.84" y="7.55" width="13.1" height="17.09"/><rect class="cls-2" x="640.52" y="7.66" width="13.1" height="17.09"/><rect class="cls-2" x="659.61" y="7.66" width="13.1" height="17.09"/><rect class="cls-2" x="659.6" y="7.88" width="13.1" height="17.09"/><rect class="cls-2" x="678.69" y="7.88" width="13.1" height="17.09"/><rect class="cls-2" x="696.36" y="8" width="13.1" height="17.09"/><rect class="cls-2" x="715.46" y="8" width="13.1" height="17.09"/><rect class="cls-2" x="733.84" y="7.83" width="13.1" height="17.09"/><rect class="cls-2" x="752.93" y="7.83" width="13.1" height="17.09"/></g></g></svg>