<svg id="Layer_1" data-name="Layer 1" xmlns="http://www.w3.org/2000/svg" viewBox="0 0 500.06 428.88"><defs><style>.cls-1,.cls-2,.cls-3,.cls-7{stroke:#231f20;stroke-miterlimit:10;}.cls-2{fill:#fff;}.cls-3,.cls-6{fill:#231f20;}.cls-4{fill:#069992;}.cls-5{fill:#f48fb3;}.cls-7{fill:none;stroke-width:9px;}</style></defs><polygon class="cls-1" points="0.51 166.13 54.35 343.4 472.42 351.28 498.77 327.89 62.82 318.83 5.22 133.68 0.51 166.13"/><polygon class="cls-2" points="296.39 380.08 404.82 406.81 489.14 0.6 254.92 35.47 296.39 380.08"/><polygon class="cls-3" points="245.03 68.89 254.94 36.99 296.17 381.08 404.13 407.81 385.6 428.32 281.58 400.94 245.03 68.89"/><polygon class="cls-4" points="303.17 373.6 398.06 398.73 471.86 16.86 266.87 49.64 303.17 373.6"/><polygon class="cls-2" points="5.22 133.68 467.52 147.04 498.77 327.89 62.82 318.83 5.22 133.68"/><polygon class="cls-5" points="21.71 147.21 454.09 158.4 483.31 309.89 75.58 302.3 21.71 147.21"/><path class="cls-6" d="M103.57,434.3V385.7h9.9v41.88h11.4v6.72Z" transform="translate(-26.52 -182)"/><path class="cls-6" d="M129,434.3l9.42-48.6h11l9.36,48.6h-9.18l-1.74-10.68h-7.68l-1.86,10.68ZM141,417.56h5.82l-2.94-19.62Z" transform="translate(-26.52 -182)"/><path class="cls-6" d="M165.07,434.3V385.7H172L182.77,411V385.7h8.16v48.6h-6.6l-10.8-26.88V434.3Z" transform="translate(-26.52 -182)"/><path class="cls-6" d="M200.11,434.3V385.7H212q6.18,0,9.63,1.59a9.37,9.37,0,0,1,4.89,5,22.35,22.35,0,0,1,1.44,8.67v17.7a23.39,23.39,0,0,1-1.44,8.88,9.62,9.62,0,0,1-4.83,5.13q-3.39,1.65-9.45,1.65Zm9.9-6.9h2.1a6.68,6.68,0,0,0,3.93-.87,3.88,3.88,0,0,0,1.47-2.58,25,25,0,0,0,.3-4.23v-20a17,17,0,0,0-.39-4.05,3.53,3.53,0,0,0-1.56-2.25,7.58,7.58,0,0,0-3.81-.72h-2Z" transform="translate(-26.52 -182)"/><path class="cls-6" d="M248.89,435a15.41,15.41,0,0,1-7.5-1.65,10.49,10.49,0,0,1-4.53-5,23,23,0,0,1-1.77-8.49l8.52-1.44a24.63,24.63,0,0,0,.63,5,6.08,6.08,0,0,0,1.56,3,3.66,3.66,0,0,0,2.61,1,2.75,2.75,0,0,0,2.61-1.2,5.41,5.41,0,0,0,.69-2.76,8.64,8.64,0,0,0-1.47-5.13,24.47,24.47,0,0,0-3.87-4.17l-5-4.38a20.14,20.14,0,0,1-4.41-5.16,13.62,13.62,0,0,1-1.71-7.08q0-6,3.51-9.21t9.63-3.21a13.12,13.12,0,0,1,6,1.2,9.17,9.17,0,0,1,3.63,3.21,13.17,13.17,0,0,1,1.8,4.38,29.56,29.56,0,0,1,.63,4.71L252,399.86a37.7,37.7,0,0,0-.39-3.9,5.33,5.33,0,0,0-1.08-2.64,3,3,0,0,0-2.43-1,2.86,2.86,0,0,0-2.58,1.29,5.11,5.11,0,0,0-.84,2.85,7.14,7.14,0,0,0,1.17,4.23,20.72,20.72,0,0,0,3.21,3.45l4.92,4.32a28.21,28.21,0,0,1,5.25,6,15.11,15.11,0,0,1,2.19,8.37,12.31,12.31,0,0,1-1.56,6.18,11.09,11.09,0,0,1-4.35,4.32A13.25,13.25,0,0,1,248.89,435Z" transform="translate(-26.52 -182)"/><path class="cls-6" d="M267.61,434.3V385.7h12.3a30,30,0,0,1,5.88.54,13.15,13.15,0,0,1,4.77,1.92,8.91,8.91,0,0,1,3.18,3.81,15.35,15.35,0,0,1,1.11,6.33,13.33,13.33,0,0,1-.84,5,7.58,7.58,0,0,1-2.4,3.27,8.81,8.81,0,0,1-3.84,1.62,9.92,9.92,0,0,1,4.74,1.92,9.1,9.1,0,0,1,2.88,4,16.4,16.4,0,0,1,1,5.94,19.56,19.56,0,0,1-.93,6.36,11,11,0,0,1-2.73,4.44,11.18,11.18,0,0,1-4.44,2.61,19.56,19.56,0,0,1-6.12.87Zm9.9-29H280a8,8,0,0,0,3.9-.75,3.92,3.92,0,0,0,1.83-2.28,12,12,0,0,0,.51-3.75,7.37,7.37,0,0,0-.75-3.57,4.31,4.31,0,0,0-2.28-2,10.7,10.7,0,0,0-3.87-.6h-1.8Zm0,22h2.76q3.72,0,5.13-1.86a9.16,9.16,0,0,0,1.41-5.58,13,13,0,0,0-.66-4.59,4.69,4.69,0,0,0-2.13-2.52,8.15,8.15,0,0,0-3.93-.81h-2.58Z" transform="translate(-26.52 -182)"/><path class="cls-6" d="M309.43,434.3V415L300,385.7h9.3l5.22,17.1,4.86-17.1h9L319,415V434.3Z" transform="translate(-26.52 -182)"/><path class="cls-6" d="M345.91,435a13.12,13.12,0,0,1-7.8-2.07,11.2,11.2,0,0,1-4.11-5.88,28.8,28.8,0,0,1-1.23-8.85V402a28.58,28.58,0,0,1,1.26-9,10.74,10.74,0,0,1,4.41-5.82q3.15-2,8.55-2a16.59,16.59,0,0,1,8.25,1.74,9.93,9.93,0,0,1,4.35,4.92,19.66,19.66,0,0,1,1.32,7.56v2.82h-9.66v-3.42a21.24,21.24,0,0,0-.24-3.39A4,4,0,0,0,349.9,393a3.91,3.91,0,0,0-2.79-.84,3.66,3.66,0,0,0-2.88,1,5,5,0,0,0-1.14,2.61,22.73,22.73,0,0,0-.24,3.39v21.54a16.94,16.94,0,0,0,.36,3.66,4.66,4.66,0,0,0,1.35,2.52,4.09,4.09,0,0,0,2.85.9,4,4,0,0,0,2.88-1,5,5,0,0,0,1.41-2.61,16.3,16.3,0,0,0,.39-3.75v-5.16h-4.74v-6H361v25h-6.48l-.6-4.38a8.92,8.92,0,0,1-2.88,3.66A8.4,8.4,0,0,1,345.91,435Z" transform="translate(-26.52 -182)"/><path class="cls-6" d="M382,435a13.12,13.12,0,0,1-7.8-2.07,11.2,11.2,0,0,1-4.11-5.88,28.8,28.8,0,0,1-1.23-8.85V402a28.58,28.58,0,0,1,1.26-9,10.74,10.74,0,0,1,4.41-5.82q3.15-2,8.55-2a16.59,16.59,0,0,1,8.25,1.74,9.93,9.93,0,0,1,4.35,4.92,19.66,19.66,0,0,1,1.32,7.56v2.82h-9.66v-3.42a21.24,21.24,0,0,0-.24-3.39A4,4,0,0,0,386,393a3.91,3.91,0,0,0-2.79-.84,3.66,3.66,0,0,0-2.88,1,5,5,0,0,0-1.14,2.61,22.73,22.73,0,0,0-.24,3.39v21.54a16.94,16.94,0,0,0,.36,3.66,4.66,4.66,0,0,0,1.35,2.52,4.09,4.09,0,0,0,2.85.9,4,4,0,0,0,2.88-1,5,5,0,0,0,1.41-2.61,16.3,16.3,0,0,0,.39-3.75v-5.16h-4.74v-6h13.68v25h-6.48l-.6-4.38a8.92,8.92,0,0,1-2.88,3.66A8.4,8.4,0,0,1,382,435Z" transform="translate(-26.52 -182)"/><path class="cls-6" d="M405.73,434.3V385.7h11.88q6.18,0,9.63,1.59a9.37,9.37,0,0,1,4.89,5,22.35,22.35,0,0,1,1.44,8.67v17.7a23.39,23.39,0,0,1-1.44,8.88,9.62,9.62,0,0,1-4.83,5.13q-3.39,1.65-9.45,1.65Zm9.9-6.9h2.1a6.68,6.68,0,0,0,3.93-.87,3.88,3.88,0,0,0,1.47-2.58,25,25,0,0,0,.3-4.23v-20a17,17,0,0,0-.39-4.05,3.53,3.53,0,0,0-1.56-2.25,7.58,7.58,0,0,0-3.81-.72h-2Z" transform="translate(-26.52 -182)"/><path class="cls-6" d="M439,434.3l9.42-48.6h11l9.36,48.6h-9.18l-1.74-10.68h-7.68l-1.86,10.68ZM451,417.56h5.82l-2.94-19.62Z" transform="translate(-26.52 -182)"/><path class="cls-6" d="M356.56,543.73v-24.3h5.22a8.11,8.11,0,0,1,2.79.42,4.3,4.3,0,0,1,1.83,1.23,4.85,4.85,0,0,1,1,1.93,9.63,9.63,0,0,1,.3,2.48,9.39,9.39,0,0,1-.27,2.26,4.41,4.41,0,0,1-.93,1.86,3.2,3.2,0,0,1-1.86,1,4.26,4.26,0,0,1,2.2,1.33,5.58,5.58,0,0,1,1.13,2.19,10,10,0,0,1,.33,2.57,13.77,13.77,0,0,1-.26,2.71,6.13,6.13,0,0,1-.9,2.24,4.45,4.45,0,0,1-1.75,1.51,6.29,6.29,0,0,1-2.82.56Zm2.28-13.83h3.3a3.59,3.59,0,0,0,2.16-.56,2.9,2.9,0,0,0,1.05-1.53,7.92,7.92,0,0,0,.3-2.32,6.28,6.28,0,0,0-.41-2.43,2.63,2.63,0,0,0-1.39-1.41,7.12,7.12,0,0,0-2.85-.45h-2.16Zm0,12.12h3.27c1.58,0,2.63-.43,3.16-1.29a7.87,7.87,0,0,0,.8-4,8.67,8.67,0,0,0-.36-2.61,3.49,3.49,0,0,0-1.22-1.79,3.76,3.76,0,0,0-2.32-.64h-3.33Z" transform="translate(-26.52 -182)"/><path class="cls-6" d="M372.28,543.73V526.39h2.19v17.34Zm.54-18.78,1.89-5.85h2.19L374,525Z" transform="translate(-26.52 -182)"/><path class="cls-6" d="M383.17,544a4.55,4.55,0,0,1-2.79-.77A4,4,0,0,1,379,541a13.41,13.41,0,0,1-.4-3.55v-4.8a13.49,13.49,0,0,1,.4-3.56,4,4,0,0,1,1.43-2.22,5.52,5.52,0,0,1,5.59,0,4,4,0,0,1,1.41,2.22,13.45,13.45,0,0,1,.41,3.56v4.8a13.37,13.37,0,0,1-.41,3.55,4,4,0,0,1-1.41,2.22A4.52,4.52,0,0,1,383.17,544Zm0-1.65a2.09,2.09,0,0,0,1.66-.6,3,3,0,0,0,.65-1.68,22.81,22.81,0,0,0,.12-2.49v-5a22.49,22.49,0,0,0-.12-2.48,3.05,3.05,0,0,0-.65-1.68,2.06,2.06,0,0,0-1.66-.61,2,2,0,0,0-1.65.61,3.21,3.21,0,0,0-.65,1.68,20.1,20.1,0,0,0-.13,2.48v5a20.38,20.38,0,0,0,.13,2.49,3.15,3.15,0,0,0,.65,1.68A2.05,2.05,0,0,0,383.17,542.35Zm-.54-17.4,1.89-5.85h2.19L383.77,525Z" transform="translate(-26.52 -182)"/><path class="cls-6" d="M392,524v-3h2.19v3Zm0,19.74V526.39h2.19v17.34Z" transform="translate(-26.52 -182)"/><path class="cls-6" d="M403.78,544a4.72,4.72,0,0,1-2.93-.86,4.8,4.8,0,0,1-1.63-2.43,12.14,12.14,0,0,1-.51-3.73v-2.22a17.84,17.84,0,0,1,.48-4.22,5.1,5.1,0,0,1,1.47-2.62,3.89,3.89,0,0,1,2.67-.9,4.68,4.68,0,0,1,1.63.27,6.93,6.93,0,0,1,1.31.63c-.1-.74-.24-1.49-.41-2.25a6.78,6.78,0,0,0-.64-1.83l-3.27.93v-1.2l2.67-.75a4,4,0,0,0-1.86-1.68,9.17,9.17,0,0,0-3.27-.69l.09-1.5a11.09,11.09,0,0,1,4.15.84,5.63,5.63,0,0,1,2.63,2.46l2.82-.78v1.23l-2.25.6a20,20,0,0,1,.81,2.35,24.72,24.72,0,0,1,.69,3.36,30.25,30.25,0,0,1,.27,4.22v3.15a17,17,0,0,1-.44,4.12,4.75,4.75,0,0,1-1.51,2.61A4.55,4.55,0,0,1,403.78,544Zm0-1.74a2.15,2.15,0,0,0,1.74-.68,4.07,4.07,0,0,0,.76-2.07,26.6,26.6,0,0,0,.2-3.58c0-.46,0-1,0-1.61s0-1.23,0-1.86,0-1.2-.06-1.71,0-.88-.06-1.12a7.07,7.07,0,0,0-1.13-.59,3.42,3.42,0,0,0-1.33-.25,2.25,2.25,0,0,0-1.68.67,4.47,4.47,0,0,0-1,2.19,19.77,19.77,0,0,0-.33,4,20.64,20.64,0,0,0,.27,3.67,4.46,4.46,0,0,0,.91,2.18A2.25,2.25,0,0,0,403.81,542.29Z" transform="translate(-26.52 -182)"/><line class="cls-7" x1="388.13" y1="228.55" x2="375.71" y2="228.55"/></svg>