<svg id="Layer_1" data-name="Layer 1" xmlns="http://www.w3.org/2000/svg" viewBox="0 0 556.83 477.21"><defs><style>.cls-1,.cls-2,.cls-3,.cls-7{stroke:#231f20;stroke-miterlimit:10;}.cls-2{fill:#fff;}.cls-3,.cls-6{fill:#231f20;}.cls-4{fill:#069992;}.cls-5{fill:#f48fb3;}.cls-7{fill:none;stroke-width:9px;}</style></defs><polygon class="cls-1" points="0.51 186.55 60.91 382.13 526.21 390.9 555.54 364.87 70.34 354.78 5.75 150.44 0.51 186.55"/><polygon class="cls-2" points="330.3 422.95 450.98 452.7 544.83 0.6 284.14 39.41 330.3 422.95"/><polygon class="cls-3" points="273.14 76.61 284.17 41.1 330.06 424.07 450.22 453.82 429.59 476.65 313.81 446.17 273.14 76.61"/><polygon class="cls-4" points="337.84 415.74 443.45 443.71 525.6 18.69 297.44 55.18 337.84 415.74"/><polygon class="cls-2" points="6.23 148.71 520.77 163.58 555.54 364.87 70.34 354.78 6.23 148.71"/><polygon class="cls-5" points="24.59 163.77 505.82 176.23 538.34 344.84 84.55 336.39 24.59 163.77"/><path class="cls-6" d="M108.82,414.46V364.88h10.1V407.6h11.63v6.86Z" transform="translate(-26.08 -133.68)"/><path class="cls-6" d="M134.71,414.46l9.61-49.58h11.2l9.55,49.58h-9.36l-1.78-10.9H146.1l-1.9,10.9ZM147,397.38H153l-3-20Z" transform="translate(-26.08 -133.68)"/><path class="cls-6" d="M171.56,414.46V364.88h7l11,25.83V364.88h8.32v49.58h-6.73l-11-27.42v27.42Z" transform="translate(-26.08 -133.68)"/><path class="cls-6" d="M207.31,414.46V364.88h12.12c4.2,0,7.48.54,9.82,1.62a9.53,9.53,0,0,1,5,5.08,22.8,22.8,0,0,1,1.47,8.85v18.05a23.84,23.84,0,0,1-1.47,9.06,9.83,9.83,0,0,1-4.93,5.24c-2.3,1.12-5.52,1.68-9.64,1.68Zm10.1-7h2.14a6.91,6.91,0,0,0,4-.89,3.94,3.94,0,0,0,1.5-2.63,25.91,25.91,0,0,0,.31-4.32V379.14A17.57,17.57,0,0,0,225,375a3.65,3.65,0,0,0-1.59-2.3,7.75,7.75,0,0,0-3.89-.73h-2.08Z" transform="translate(-26.08 -133.68)"/><path class="cls-6" d="M257.07,415.13a15.74,15.74,0,0,1-7.65-1.68,10.71,10.71,0,0,1-4.62-5.08,23.44,23.44,0,0,1-1.8-8.66l8.69-1.47a25,25,0,0,0,.64,5.11,6.23,6.23,0,0,0,1.59,3.06,3.75,3.75,0,0,0,2.66,1,2.82,2.82,0,0,0,2.67-1.22,5.57,5.57,0,0,0,.7-2.82,8.78,8.78,0,0,0-1.5-5.23,24.69,24.69,0,0,0-3.95-4.26l-5.14-4.47a20.94,20.94,0,0,1-4.5-5.26,14,14,0,0,1-1.74-7.22q0-6.12,3.58-9.4t9.82-3.28a13.4,13.4,0,0,1,6.13,1.23,9.45,9.45,0,0,1,3.7,3.27,13.5,13.5,0,0,1,1.84,4.47,31,31,0,0,1,.64,4.81l-8.63,1.28c-.09-1.51-.22-2.83-.4-4a5.4,5.4,0,0,0-1.1-2.69,3.07,3.07,0,0,0-2.48-1,2.91,2.91,0,0,0-2.63,1.32,5.15,5.15,0,0,0-.86,2.91,7.32,7.32,0,0,0,1.19,4.31,21.18,21.18,0,0,0,3.28,3.52l5,4.41a28.31,28.31,0,0,1,5.35,6.15,15.42,15.42,0,0,1,2.24,8.54,12.55,12.55,0,0,1-1.59,6.3,11.41,11.41,0,0,1-4.44,4.41A13.54,13.54,0,0,1,257.07,415.13Z" transform="translate(-26.08 -133.68)"/><path class="cls-6" d="M276.17,414.46V364.88h12.55a30.47,30.47,0,0,1,6,.55,13.27,13.27,0,0,1,4.87,2,9,9,0,0,1,3.24,3.88,15.63,15.63,0,0,1,1.13,6.46,13.59,13.59,0,0,1-.85,5.11,7.82,7.82,0,0,1-2.45,3.34,8.88,8.88,0,0,1-3.92,1.65,10.19,10.19,0,0,1,4.84,2,9.41,9.41,0,0,1,2.94,4,16.73,16.73,0,0,1,1,6.06,20,20,0,0,1-.95,6.49,11.27,11.27,0,0,1-2.79,4.53,11.6,11.6,0,0,1-4.53,2.66,20,20,0,0,1-6.24.89Zm10.1-29.57h2.51a8.23,8.23,0,0,0,4-.76,4.05,4.05,0,0,0,1.87-2.33,12.08,12.08,0,0,0,.52-3.82,7.52,7.52,0,0,0-.77-3.65,4.43,4.43,0,0,0-2.32-2,11.11,11.11,0,0,0-3.95-.61h-1.84Zm0,22.47h2.82q3.8,0,5.23-1.9a9.33,9.33,0,0,0,1.44-5.69,13.26,13.26,0,0,0-.67-4.68,4.81,4.81,0,0,0-2.17-2.58,8.34,8.34,0,0,0-4-.82h-2.64Z" transform="translate(-26.08 -133.68)"/><path class="cls-6" d="M318.84,414.46V394.81l-9.67-29.93h9.49L324,382.32l5-17.44h9.18l-9.55,29.93v19.65Z" transform="translate(-26.08 -133.68)"/><path class="cls-6" d="M356.06,415.19a13.37,13.37,0,0,1-8-2.11,11.39,11.39,0,0,1-4.19-6,29.31,29.31,0,0,1-1.26-9V381.47a29.11,29.11,0,0,1,1.29-9.19,10.85,10.85,0,0,1,4.5-5.93q3.21-2.09,8.72-2.09a17,17,0,0,1,8.42,1.78,10.08,10.08,0,0,1,4.43,5,20,20,0,0,1,1.35,7.71v2.88h-9.85v-3.49a22,22,0,0,0-.25-3.46,4.1,4.1,0,0,0-1.13-2.36,4,4,0,0,0-2.85-.85,3.73,3.73,0,0,0-2.94,1,5,5,0,0,0-1.16,2.66,23.7,23.7,0,0,0-.24,3.46v22a17.62,17.62,0,0,0,.36,3.73,4.81,4.81,0,0,0,1.38,2.57,5,5,0,0,0,5.85-.06,5.16,5.16,0,0,0,1.43-2.66,16.5,16.5,0,0,0,.4-3.83v-5.26h-4.83V389h14v25.46h-6.61l-.61-4.47a9.07,9.07,0,0,1-2.94,3.74A8.55,8.55,0,0,1,356.06,415.19Z" transform="translate(-26.08 -133.68)"/><path class="cls-6" d="M392.91,415.19a13.37,13.37,0,0,1-8-2.11,11.39,11.39,0,0,1-4.19-6,29.31,29.31,0,0,1-1.26-9V381.47a29.11,29.11,0,0,1,1.29-9.19,10.85,10.85,0,0,1,4.5-5.93q3.21-2.09,8.72-2.09a17,17,0,0,1,8.42,1.78,10.15,10.15,0,0,1,4.44,5,20.18,20.18,0,0,1,1.34,7.71v2.88h-9.85v-3.49a22,22,0,0,0-.25-3.46,4.1,4.1,0,0,0-1.13-2.36,4,4,0,0,0-2.85-.85,3.73,3.73,0,0,0-2.94,1,5,5,0,0,0-1.16,2.66,23.7,23.7,0,0,0-.24,3.46v22a17.62,17.62,0,0,0,.36,3.73,4.81,4.81,0,0,0,1.38,2.57,5,5,0,0,0,5.85-.06,5.24,5.24,0,0,0,1.44-2.66,17.1,17.1,0,0,0,.39-3.83v-5.26h-4.83V389h13.95v25.46h-6.61l-.61-4.47a9.07,9.07,0,0,1-2.94,3.74A8.55,8.55,0,0,1,392.91,415.19Z" transform="translate(-26.08 -133.68)"/><path class="cls-6" d="M417.09,414.46V364.88h12.12q6.3,0,9.82,1.62a9.53,9.53,0,0,1,5,5.08,22.8,22.8,0,0,1,1.47,8.85v18.05a23.84,23.84,0,0,1-1.47,9.06,9.83,9.83,0,0,1-4.93,5.24c-2.3,1.12-5.52,1.68-9.64,1.68Zm10.1-7h2.14a6.91,6.91,0,0,0,4-.89,4,4,0,0,0,1.5-2.63,26,26,0,0,0,.3-4.32V379.14a17.65,17.65,0,0,0-.39-4.13,3.65,3.65,0,0,0-1.59-2.3,7.77,7.77,0,0,0-3.89-.73h-2.08Z" transform="translate(-26.08 -133.68)"/><path class="cls-6" d="M451,414.46l9.61-49.58h11.2l9.55,49.58H472l-1.78-10.9h-7.83l-1.9,10.9Zm12.3-17.08h5.94l-3-20Z" transform="translate(-26.08 -133.68)"/><path class="cls-6" d="M487.85,414.46V364.88h12.86a28.6,28.6,0,0,1,8.6,1.13,10,10,0,0,1,5.51,4q1.92,2.88,1.92,8a25,25,0,0,1-.52,5.41,10.48,10.48,0,0,1-1.83,4.11,9.07,9.07,0,0,1-3.71,2.78l6.86,24.18H507.19L501.5,392H498v22.47ZM498,386h2.94a7.89,7.89,0,0,0,3.86-.8,4.35,4.35,0,0,0,2-2.42,11.91,11.91,0,0,0,.59-4,9.1,9.1,0,0,0-1.26-5.23c-.84-1.2-2.4-1.81-4.68-1.81H498Z" transform="translate(-26.08 -133.68)"/><path class="cls-6" d="M393.84,536.2v-27h5.81a9.09,9.09,0,0,1,3.1.46,4.91,4.91,0,0,1,2,1.37,5.4,5.4,0,0,1,1.1,2.16,10.74,10.74,0,0,1,.33,2.75,10.47,10.47,0,0,1-.3,2.52,4.93,4.93,0,0,1-1,2.07,3.55,3.55,0,0,1-2.07,1.12,4.73,4.73,0,0,1,2.45,1.49,6.12,6.12,0,0,1,1.25,2.43,11,11,0,0,1,.37,2.86,15.34,15.34,0,0,1-.28,3,6.93,6.93,0,0,1-1,2.49,5,5,0,0,1-2,1.68,6.89,6.89,0,0,1-3.14.62Zm2.53-15.39h3.68a4,4,0,0,0,2.4-.62,3.2,3.2,0,0,0,1.17-1.7,9,9,0,0,0,.33-2.59,7,7,0,0,0-.45-2.7,2.91,2.91,0,0,0-1.55-1.57,7.82,7.82,0,0,0-3.17-.5h-2.41Zm0,13.49H400c1.76,0,2.94-.48,3.53-1.44a8.86,8.86,0,0,0,.88-4.47,9.61,9.61,0,0,0-.4-2.91,3.92,3.92,0,0,0-1.35-2,4.21,4.21,0,0,0-2.59-.72h-3.71Z" transform="translate(-26.08 -133.68)"/><path class="cls-6" d="M411.33,536.2V516.9h2.44v19.3Zm.6-20.9,2.11-6.51h2.43l-3.27,6.51Z" transform="translate(-26.08 -133.68)"/><path class="cls-6" d="M423.45,536.5a5,5,0,0,1-3.1-.85,4.46,4.46,0,0,1-1.59-2.47,15,15,0,0,1-.45-4v-5.34a15,15,0,0,1,.45-4,4.46,4.46,0,0,1,1.59-2.47,6.11,6.11,0,0,1,6.22,0,4.48,4.48,0,0,1,1.57,2.47,15,15,0,0,1,.45,4v5.34a15,15,0,0,1-.45,4,4.48,4.48,0,0,1-1.57,2.47A5,5,0,0,1,423.45,536.5Zm0-1.83a2.35,2.35,0,0,0,1.85-.67,3.35,3.35,0,0,0,.72-1.87,25.06,25.06,0,0,0,.14-2.77v-5.61A24.6,24.6,0,0,0,426,521a3.42,3.42,0,0,0-.72-1.87,2.32,2.32,0,0,0-1.85-.68,2.28,2.28,0,0,0-1.84.68,3.66,3.66,0,0,0-.71,1.87,22.26,22.26,0,0,0-.15,2.76v5.61a22.66,22.66,0,0,0,.15,2.77,3.59,3.59,0,0,0,.71,1.87A2.31,2.31,0,0,0,423.45,534.67Zm-.6-19.37,2.1-6.51h2.44l-3.27,6.51Z" transform="translate(-26.08 -133.68)"/><path class="cls-6" d="M433.27,514.23v-3.3h2.44v3.3Zm0,22V516.9h2.44v19.3Z" transform="translate(-26.08 -133.68)"/><path class="cls-6" d="M446.39,536.54a5.22,5.22,0,0,1-3.26-1,5.35,5.35,0,0,1-1.82-2.7,13.87,13.87,0,0,1-.56-4.16v-2.47a19.89,19.89,0,0,1,.53-4.69,5.65,5.65,0,0,1,1.64-2.92,4.29,4.29,0,0,1,3-1,5.26,5.26,0,0,1,1.82.3,7.51,7.51,0,0,1,1.45.7c-.11-.82-.26-1.66-.45-2.51a7.53,7.53,0,0,0-.72-2l-3.64,1V513.8l3-.84a4.45,4.45,0,0,0-2.07-1.87,10.24,10.24,0,0,0-3.64-.77l.1-1.66a12.22,12.22,0,0,1,4.63.93,6.28,6.28,0,0,1,2.92,2.74l3.14-.87v1.37l-2.5.67a25.64,25.64,0,0,1,.9,2.62,27.59,27.59,0,0,1,.76,3.74,33.44,33.44,0,0,1,.31,4.69v3.5a19.18,19.18,0,0,1-.49,4.6,5.22,5.22,0,0,1-1.69,2.9A5,5,0,0,1,446.39,536.54Zm0-1.94a2.4,2.4,0,0,0,1.94-.75,4.51,4.51,0,0,0,.85-2.31,28.79,28.79,0,0,0,.22-4c0-.51,0-1.1,0-1.78s0-1.37-.05-2.07,0-1.34-.07-1.91,0-1-.06-1.25a8.64,8.64,0,0,0-1.25-.65,3.87,3.87,0,0,0-1.49-.28,2.5,2.5,0,0,0-1.87.75,4.92,4.92,0,0,0-1.1,2.43,21.68,21.68,0,0,0-.37,4.5,23.13,23.13,0,0,0,.3,4.09,4.94,4.94,0,0,0,1,2.42A2.5,2.5,0,0,0,446.42,534.6Z" transform="translate(-26.08 -133.68)"/><line class="cls-7" x1="387.52" y1="254.3" x2="398.65" y2="254.3"/></svg>