<svg id="Layer_1" data-name="Layer 1" xmlns="http://www.w3.org/2000/svg" viewBox="0 0 346.05 578.11"><defs><style>.cls-1{stroke:#fff;stroke-miterlimit:10;}.cls-2{fill:#079992;}</style></defs><path class="cls-1" d="M295,235.48" transform="translate(-137 -27.47)"/><path class="cls-2" d="M308.23,212.89c2.46-8.64,3.44-8.57,5.65-16.37,3.1-11,2.41-15.64,3.67-15.81,2.69-.37,7.5,20.72,14.12,48.56,11.38,47.92,12.75,51.2,16.65,71.72,2.63,13.77,5,26.08,7.06,43.2a556.38,556.38,0,0,1,4,59.57c.23,17.52.55,40.67-3.39,70.59-6.13,46.5-9.19,69.75-23.44,95.44-6.25,11.28-12.23,18.85-9,25.49,6.28,13,44.08,14.43,52.8,0,1.26-2.09,1.54-3.9,2-6.86,3.76-25.7,5.64-38.55,5.65-38.68,1.29-19,2.44-15.18,4.8-40.66a582.83,582.83,0,0,0,2.54-79.34c-.6-15.4-1.76-27.88-3.1-42.35-1.43-15.38-2.27-24.25-4.24-36.43-2.37-14.65-4.94-25.26-8.19-38.68-2.28-9.44-5.87-23.43-11-40.37-6.12-20.21-9.19-30.32-14.4-42.64-4.23-10-9.95-21.94-18.92-40.66-1.52-3.18-2.8-5.82-3.67-7.62,6.64,6.26,12.58,11.25,17.23,15a243,243,0,0,0,34.73,23.44c2,1.09,3.67,2,4.8,2.54l5.08,3.67L391.24,207l11,32.18,1.7-29.08,8.75,34.45,8.24-26L427.67,253l5.64,2.54L432.47,231l3.38,8.18,5.09,13.56,8.18,5.08,9.89,7.06,9.6,7.9c-1-2.67-2.46-6.79-4.24-11.86-3.07-8.74-3.7-10.88-5.65-16.37-2.09-5.93-4.55-12.88-7.9-20.61A175.66,175.66,0,0,0,441.5,205c-6.56-11.11-13.54-17.64-24.28-27.67-10.07-9.41-21-19.5-38.12-28.52a147.4,147.4,0,0,0-21.74-9.32l41.79-3.39-.85-1.41-7.9-12.14,16.37,11,5.93-.56-11.29-14.4L418.91,131l6.21-.56-7.05-15.53L436.7,129l8.75-.85-10.73-11.3,19.2,10.73,29.13-2.82a48.06,48.06,0,0,0-8.51-8.75c-6-4.74-11.17-6.54-19.77-9.6-26.71-9.51-24.35-9.18-29.36-10.45-11.72-3-17.58-4.44-26-4-12.18.7-22,5-27.95,7.62a102.15,102.15,0,0,0-12.43,6.5L335.62,120l8.47-7.34,10.16-10.45,9.89-11.86,3.67-5.93-13.27-3.1,20-3.67.29-3.67-14.69-2.26,20.62-2,1.69-4.52-14.12-5.64L390.11,57l4.24-4.8L392.09,52l-11.58-.84,11-2.83L399.43,46l6.78-8.18,10.16-10.06a59.64,59.64,0,0,0-12.14,0c-2.91.29-9.92,1.21-27.67,9.21-10.21,4.6-15.4,6.94-22.31,11.58-6.31,4.23-11.59,7.85-16.65,14.4-4.59,5.93-6.73,11.34-9,17.22-2,5-3.58,10.89-6.78,22.59-1,3.53-1.73,6.46-2.26,8.47l-4.8,15.24c-3.48-2.37-8.68-6.08-14.68-11-8.81-7.24-11.5-10.66-20.61-18.91C268.6,86.75,263.18,81.84,256,77.65A78.93,78.93,0,0,0,227.76,67.2c-9.36-1.45-17.25-.21-33,2.26-13.2,2.07-26.23,4.21-41.51,11.58a116.26,116.26,0,0,0-12.14,6.77L137,91.2v2a92.81,92.81,0,0,1,30.62,6.49l22.87-8.47-18.92,16.66,5.08,1.69L210,91.2l-15.53,25.13,31.34-17.79-18.91,21.74,31.62-15L227.2,119.44l39,12.14c-2.49.78-6,2-10.16,3.67-3.77,1.54-14.13,6-31.06,18.07-9.63,6.86-19.22,13.69-30.21,25.13-5.53,5.74-12.28,12.84-18.92,23.72-3.67,6-6.31,11.53-11.86,25.69-4.13,10.53-9.37,24.56-15,41.5l26.83-18.63,9-23.15v25.69l4.8-2.26,8.47-37,9,27.39,8.19-36.14,2.54,29.65,10.45-33,3.1,18.64,16.94-10.17,9.6-5.64a67.92,67.92,0,0,0-4.52,15.53,71.8,71.8,0,0,0-.56,17.5c1.33,19.69,2,29.54,4.8,40.1A137.77,137.77,0,0,0,271,310.31l3.67,3.38,2-10.44L280,291.67l2.82-7.91-8.47-24.28,16.94,20,1.69-5.08L275.48,242l24.28,14.68-17.22-32.47L304,244.52l-13.56-31.91L304,224.47Z" transform="translate(-137 -27.47)"/></svg>